<?xml version="1.0" encoding="utf-8"?>
<!-- Generator: Adobe Illustrator 18.0.0, SVG Export Plug-In . SVG Version: 6.00 Build 0)  -->
<!DOCTYPE svg PUBLIC "-//W3C//DTD SVG 1.1//EN" "http://www.w3.org/Graphics/SVG/1.1/DTD/svg11.dtd">
<svg version="1.1" xmlns="http://www.w3.org/2000/svg" xmlns:xlink="http://www.w3.org/1999/xlink" x="0px" y="0px"
	 viewBox="0 0 596.5 514.4" enable-background="new 0 0 596.5 514.4" xml:space="preserve">
<g id="atleeve_layer">
	<path class="atleeve_path" fill="#F2F2F2" d="M521.5,370.2l-63-94C441,293.3,418.3,310,390.3,326l10.8,76l-70.1,18.6l-2.7-56.1
		c-21,10.6-67.7,24.3-138.8,39.2l-25,51.5L2,498.2l66.5-111c-8.6-2.7-37-23.3-39-38c21.3,19.3,45,24.7,49,21l174-267l59,13
		L203.9,372.6c10.3,4,133-39.4,123.2-43.6l-6.7-193.8c3-10.4,4.9-16.6,9.3-17.1c3.1,0.5,11.9,7.8,23.7,30.1l28,145
		c21.8-13.4,39.2-28.4,50-46L351.8,121l35.7,2.2l72,77c5.8,2.3,9.1,1.3,10-3c13.1-19.6,20-44.9,17.2-78.8
		c-4-35.7-17.8-49.3-49.2-68.2c-24.4-17.6-135.2-29.4-159.1-2l193.1,51.1l-19,27l-318-63l-68-59h44.6l146.4,39
		c76-47,199.8-21.3,211.8-15.3c14.7,7.7,38,18.2,59.8,54.2c-0.1,0.9,8.7,18.6,8.6,49.8c2.2,14.1-10.8,46.9-14.6,52.9
		c-0.9,4.5-30,42.7-29.7,50.3c0.3,7.7,2.2,9.2,2.2,9.2l96.8,108L521.5,370.2z"/>
</g>
</svg>
